<svg width="256" height="256" viewBox="0 0 256 256" fill="none" xmlns="http://www.w3.org/2000/svg">
<g clip-path="url(#clip0_1792_49)">
<path d="M128 0C198.694 0 256 57.3056 256 128V217.6C256 227.784 251.954 237.552 244.753 244.753C237.552 251.954 227.784 256 217.6 256H134.4V199.846C134.4 187.034 135.181 173.76 141.901 162.854C146.712 155.039 153.148 148.35 160.771 143.24C168.395 138.131 177.029 134.721 186.086 133.242L188.538 132.845C189.548 132.499 190.425 131.847 191.047 130.978C191.668 130.109 192.002 129.068 192.002 128C192.002 126.932 191.668 125.891 191.047 125.022C190.425 124.153 189.548 123.501 188.538 123.155L186.086 122.758C172.852 120.597 160.632 114.332 151.15 104.85C141.668 95.3685 135.403 83.1477 133.242 69.9136L132.845 67.4624C132.499 66.4519 131.847 65.5746 130.978 64.9535C130.109 64.3323 129.068 63.9984 128 63.9984C126.932 63.9984 125.891 64.3323 125.022 64.9535C124.153 65.5746 123.501 66.4519 123.155 67.4624L122.758 69.9136C121.28 78.9713 117.87 87.605 112.76 95.2289C107.651 102.853 100.961 109.288 93.1456 114.099C82.24 120.819 68.9664 121.6 56.1536 121.6H0.153599C3.5008 53.8816 59.456 0 128 0Z" fill="#FB6462"/>
<path d="M0 134.4H56.1536C68.9664 134.4 82.24 135.181 93.1456 141.901C101.67 147.154 108.846 154.33 114.099 162.854C120.819 173.76 121.6 187.034 121.6 199.846V256H38.4C28.2157 256 18.4485 251.954 11.2471 244.753C4.0457 237.552 0 227.784 0 217.6L0 134.4ZM256 12.8C256 16.1948 254.651 19.4505 252.251 21.851C249.851 24.2514 246.595 25.6 243.2 25.6C239.805 25.6 236.549 24.2514 234.149 21.851C231.749 19.4505 230.4 16.1948 230.4 12.8C230.4 9.40523 231.749 6.1495 234.149 3.74903C236.549 1.34857 239.805 0 243.2 0C246.595 0 249.851 1.34857 252.251 3.74903C254.651 6.1495 256 9.40523 256 12.8Z" fill="#FB6462"/>
</g>
<defs>
<clipPath id="clip0_1792_49">
<rect width="256" height="256" fill="white"/>
</clipPath>
</defs>
</svg>
